<svg xmlns="http://www.w3.org/2000/svg" width="1100" height="620" viewBox="0 0 1100 620">
<rect width="100%" height="100%" fill="white"/>
<text x="550.0" y="34" text-anchor="middle" font-family="Arial" font-size="22" font-weight="700" fill="#111827">Ведущие страны по связям авторства со странами</text>
<text x="220" y="95.3" text-anchor="end" font-family="Arial" font-size="13" fill="#374151">ID</text>
<rect x="230" y="78.0" width="815.0" height="25.5" fill="#2563eb" rx="2"/>
<text x="1051.0" y="95.3" font-family="Arial" font-size="12" fill="#111827">80,535</text>
<text x="220" y="126.8" text-anchor="end" font-family="Arial" font-size="13" fill="#374151">CN</text>
<rect x="230" y="109.46666666666667" width="327.1" height="25.5" fill="#059669" rx="2"/>
<text x="563.1" y="126.8" font-family="Arial" font-size="12" fill="#111827">32,322</text>
<text x="220" y="158.3" text-anchor="end" font-family="Arial" font-size="13" fill="#374151">US</text>
<rect x="230" y="140.93333333333334" width="137.7" height="25.5" fill="#d97706" rx="2"/>
<text x="373.7" y="158.3" font-family="Arial" font-size="12" fill="#111827">13,606</text>
<text x="220" y="189.7" text-anchor="end" font-family="Arial" font-size="13" fill="#374151">IN</text>
<rect x="230" y="172.39999999999998" width="88.9" height="25.5" fill="#7c3aed" rx="2"/>
<text x="324.9" y="189.7" font-family="Arial" font-size="12" fill="#111827">8,787</text>
<text x="220" y="221.2" text-anchor="end" font-family="Arial" font-size="13" fill="#374151">RU</text>
<rect x="230" y="203.86666666666667" width="78.6" height="25.5" fill="#dc2626" rx="2"/>
<text x="314.6" y="221.2" font-family="Arial" font-size="12" fill="#111827">7,771</text>
<text x="220" y="252.7" text-anchor="end" font-family="Arial" font-size="13" fill="#374151">IT</text>
<rect x="230" y="235.33333333333331" width="52.7" height="25.5" fill="#0891b2" rx="2"/>
<text x="288.7" y="252.7" font-family="Arial" font-size="12" fill="#111827">5,208</text>
<text x="220" y="284.1" text-anchor="end" font-family="Arial" font-size="13" fill="#374151">TR</text>
<rect x="230" y="266.79999999999995" width="41.9" height="25.5" fill="#4b5563" rx="2"/>
<text x="277.9" y="284.1" font-family="Arial" font-size="12" fill="#111827">4,137</text>
<text x="220" y="315.6" text-anchor="end" font-family="Arial" font-size="13" fill="#374151">SA</text>
<rect x="230" y="298.26666666666665" width="41.5" height="25.5" fill="#2563eb" rx="2"/>
<text x="277.5" y="315.6" font-family="Arial" font-size="12" fill="#111827">4,102</text>
<text x="220" y="347.1" text-anchor="end" font-family="Arial" font-size="13" fill="#374151">FR</text>
<rect x="230" y="329.73333333333335" width="40.8" height="25.5" fill="#059669" rx="2"/>
<text x="276.8" y="347.1" font-family="Arial" font-size="12" fill="#111827">4,029</text>
<text x="220" y="378.5" text-anchor="end" font-family="Arial" font-size="13" fill="#374151">DE</text>
<rect x="230" y="361.2" width="38.8" height="25.5" fill="#d97706" rx="2"/>
<text x="274.8" y="378.5" font-family="Arial" font-size="12" fill="#111827">3,837</text>
<text x="220" y="410.0" text-anchor="end" font-family="Arial" font-size="13" fill="#374151">JP</text>
<rect x="230" y="392.66666666666663" width="31.2" height="25.5" fill="#7c3aed" rx="2"/>
<text x="267.2" y="410.0" font-family="Arial" font-size="12" fill="#111827">3,085</text>
<text x="220" y="441.5" text-anchor="end" font-family="Arial" font-size="13" fill="#374151">ES</text>
<rect x="230" y="424.1333333333333" width="30.3" height="25.5" fill="#dc2626" rx="2"/>
<text x="266.3" y="441.5" font-family="Arial" font-size="12" fill="#111827">2,997</text>
<text x="220" y="472.9" text-anchor="end" font-family="Arial" font-size="13" fill="#374151">BR</text>
<rect x="230" y="455.59999999999997" width="30.3" height="25.5" fill="#0891b2" rx="2"/>
<text x="266.3" y="472.9" font-family="Arial" font-size="12" fill="#111827">2,994</text>
<text x="220" y="504.4" text-anchor="end" font-family="Arial" font-size="13" fill="#374151">PK</text>
<rect x="230" y="487.06666666666666" width="27.9" height="25.5" fill="#4b5563" rx="2"/>
<text x="263.9" y="504.4" font-family="Arial" font-size="12" fill="#111827">2,756</text>
<text x="220" y="535.9" text-anchor="end" font-family="Arial" font-size="13" fill="#374151">IR</text>
<rect x="230" y="518.5333333333333" width="26.5" height="25.5" fill="#2563eb" rx="2"/>
<text x="262.5" y="535.9" font-family="Arial" font-size="12" fill="#111827">2,615</text>
<text x="637.5" y="596" text-anchor="middle" font-family="Arial" font-size="12" fill="#6b7280">Количество связей авторства со странами</text>
</svg>